REM DIRINDEX 1\2,1\3\7,1\3\8,1\4\9,1\4\10,1\4\11,1\5\12,1\5\13,1\5\14,1\6\15,1\6\16,1\6\17
REM DIRNAME "folder01","folder02","folder03","folder04","folder05","folder06","folder07","folder08","folder09","folder10","folder11","folder12","folder13","folder14","folder15","folder16","folder17"
TITLE ""
FILE "2Q_j_1342-1355.mp3" MP3
  TRACK 01 AUDIO
    TITLE "0:"
    INDEX 01 00:00:00
  TRACK 02 AUDIO
    TITLE "9:cjc174_0242"
    INDEX 01 00:00:16
  TRACK 03 AUDIO
    TITLE "0:"
    INDEX 01 00:02:56
  TRACK 04 AUDIO
    TITLE "10:cjc174_0243"
    INDEX 01 00:03:26
  TRACK 05 AUDIO
    TITLE "0:"
    INDEX 01 00:05:06
  TRACK 06 AUDIO
    TITLE "11:cjc174_0244"
    INDEX 01 00:05:51
  TRACK 07 AUDIO
    TITLE "0:"
    INDEX 01 00:08:65
  TRACK 08 AUDIO
    TITLE "9:cjc174_0245"
    INDEX 01 00:09:39
  TRACK 09 AUDIO
    TITLE "0:"
    INDEX 01 00:10:60
  TRACK 10 AUDIO
    TITLE "10:cjc174_0246"
    INDEX 01 00:11:30
  TRACK 11 AUDIO
    TITLE "0:"
    INDEX 01 00:12:47
  TRACK 12 AUDIO
    TITLE "11:cjc174_0247"
    INDEX 01 00:13:17
  TRACK 13 AUDIO
    TITLE "0:"
    INDEX 01 00:17:15
  TRACK 14 AUDIO
    TITLE "9:cjc174_0248"
    INDEX 01 00:17:70
  TRACK 15 AUDIO
    TITLE "0:"
    INDEX 01 00:19:21
  TRACK 16 AUDIO
    TITLE "10:cjc174_0249"
    INDEX 01 00:19:66
  TRACK 17 AUDIO
    TITLE "0:"
    INDEX 01 00:23:05
  TRACK 18 AUDIO
    TITLE "11:cjc174_0250"
    INDEX 01 00:23:51
  TRACK 19 AUDIO
    TITLE "0:"
    INDEX 01 00:27:15
  TRACK 20 AUDIO
    TITLE "9:cjc174_0251"
    INDEX 01 00:27:64
  TRACK 21 AUDIO
    TITLE "0:"
    INDEX 01 00:29:26
  TRACK 22 AUDIO
    TITLE "10:cjc174_0252"
    INDEX 01 00:29:73
  TRACK 23 AUDIO
    TITLE "0:"
    INDEX 01 00:33:49
  TRACK 24 AUDIO
    TITLE "11:cjc174_0253"
    INDEX 01 00:34:17
  TRACK 25 AUDIO
    TITLE "0:"
    INDEX 01 00:40:04
  TRACK 26 AUDIO
    TITLE "9:cjc174_0254"
    INDEX 01 00:40:51
  TRACK 27 AUDIO
    TITLE "0:"
    INDEX 01 00:42:40
  TRACK 28 AUDIO
    TITLE "10:cjc174_0255"
    INDEX 01 00:43:12
  TRACK 29 AUDIO
    TITLE "0:"
    INDEX 01 00:48:13
  TRACK 30 AUDIO
    TITLE "11:cjc174_0256"
    INDEX 01 00:48:56
  TRACK 31 AUDIO
    TITLE "0:"
    INDEX 01 00:52:62
  TRACK 32 AUDIO
    TITLE "9:cjc174_0257"
    INDEX 01 00:53:36
  TRACK 33 AUDIO
    TITLE "0:"
    INDEX 01 00:55:03
  TRACK 34 AUDIO
    TITLE "10:cjc174_0258"
    INDEX 01 00:55:49
  TRACK 35 AUDIO
    TITLE "0:"
    INDEX 01 01:00:60
  TRACK 36 AUDIO
    TITLE "11:cjc174_0259"
    INDEX 01 01:01:30
  TRACK 37 AUDIO
    TITLE "0:"
    INDEX 01 01:05:55
  TRACK 38 AUDIO
    TITLE "9:cjc174_0260"
    INDEX 01 01:06:29
  TRACK 39 AUDIO
    TITLE "0:"
    INDEX 01 01:08:47
  TRACK 40 AUDIO
    TITLE "10:cjc174_0261"
    INDEX 01 01:09:19
  TRACK 41 AUDIO
    TITLE "0:"
    INDEX 01 01:11:22
  TRACK 42 AUDIO
    TITLE "11:cjc174_0262"
    INDEX 01 01:11:65
  TRACK 43 AUDIO
    TITLE "0:"
    INDEX 01 01:15:69
  TRACK 44 AUDIO
    TITLE "9:cjc174_0263"
    INDEX 01 01:16:45
  TRACK 45 AUDIO
    TITLE "0:"
    INDEX 01 01:18:38
  TRACK 46 AUDIO
    TITLE "10:cjc174_0264"
    INDEX 01 01:19:10
  TRACK 47 AUDIO
    TITLE "0:"
    INDEX 01 01:21:54
  TRACK 48 AUDIO
    TITLE "11:cjc174_0265"
    INDEX 01 01:22:26
  TRACK 49 AUDIO
    TITLE "0:"
    INDEX 01 01:26:65
  TRACK 50 AUDIO
    TITLE "9:cjc174_0266"
    INDEX 01 01:27:35
  TRACK 51 AUDIO
    TITLE "0:"
    INDEX 01 01:28:62
  TRACK 52 AUDIO
    TITLE "10:cjc174_0267"
    INDEX 01 01:29:34
  TRACK 53 AUDIO
    TITLE "0:"
    INDEX 01 01:31:09
  TRACK 54 AUDIO
    TITLE "11:cjc174_0268"
    INDEX 01 01:31:54
  TRACK 55 AUDIO
    TITLE "0:"
    INDEX 01 01:36:08
  TRACK 56 AUDIO
    TITLE "9:cjc174_0269"
    INDEX 01 01:36:53
  TRACK 57 AUDIO
    TITLE "0:"
    INDEX 01 01:38:27
  TRACK 58 AUDIO
    TITLE "10:cjc174_0270"
    INDEX 01 01:38:72
  TRACK 59 AUDIO
    TITLE "0:"
    INDEX 01 01:42:56
  TRACK 60 AUDIO
    TITLE "11:cjc174_0271"
    INDEX 01 01:43:26
  TRACK 61 AUDIO
    TITLE "0:"
    INDEX 01 01:47:49
  TRACK 62 AUDIO
    TITLE "9:cjc174_0272"
    INDEX 01 01:48:19
  TRACK 63 AUDIO
    TITLE "0:"
    INDEX 01 01:50:18
  TRACK 64 AUDIO
    TITLE "10:cjc174_0273"
    INDEX 01 01:50:63
  TRACK 65 AUDIO
    TITLE "0:"
    INDEX 01 01:55:06
  TRACK 66 AUDIO
    TITLE "11:cjc174_0274"
    INDEX 01 01:55:49
  TRACK 67 AUDIO
    TITLE "0:"
    INDEX 01 02:00:72
  TRACK 68 AUDIO
    TITLE "9:cjc174_0275"
    INDEX 01 02:01:42
  TRACK 69 AUDIO
    TITLE "0:"
    INDEX 01 02:03:17
  TRACK 70 AUDIO
    TITLE "10:cjc174_0276"
    INDEX 01 02:03:62
  TRACK 71 AUDIO
    TITLE "0:"
    INDEX 01 02:06:02
  TRACK 72 AUDIO
    TITLE "11:cjc174_0277"
    INDEX 01 02:06:47
  TRACK 73 AUDIO
    TITLE "0:"
    INDEX 01 02:11:01
  TRACK 74 AUDIO
    TITLE "9:cjc174_0278"
    INDEX 01 02:11:50
  TRACK 75 AUDIO
    TITLE "0:"
    INDEX 01 02:12:71
  TRACK 76 AUDIO
    TITLE "10:cjc174_0279"
    INDEX 01 02:13:43
  TRACK 77 AUDIO
    TITLE "0:"
    INDEX 01 02:15:42
  TRACK 78 AUDIO
    TITLE "11:cjc174_0280"
    INDEX 01 02:16:12
  TRACK 79 AUDIO
    TITLE "0:"
    INDEX 01 02:19:36
  TRACK 80 AUDIO
    TITLE "9:cjc174_0281"
    INDEX 01 02:20:13
  TRACK 81 AUDIO
    TITLE "0:"
    INDEX 01 02:21:50
  TRACK 82 AUDIO
    TITLE "10:cjc174_0282"
    INDEX 01 02:22:18
  TRACK 83 AUDIO
    TITLE "0:"
    INDEX 01 02:23:69
  TRACK 84 AUDIO
    TITLE "11:cjc174_0283"
    INDEX 01 02:24:37
  TRACK 85 AUDIO
    TITLE "0:"
    INDEX 01 02:28:23
